<?xml version="1.0" encoding="UTF-8" standalone="no"?>
<!DOCTYPE svg PUBLIC "-//W3C//DTD SVG 1.1//EN" "http://www.w3.org/Graphics/SVG/1.1/DTD/svg11.dtd">
<svg xmlns="http://www.w3.org/2000/svg" version="1.1" viewBox="0.00 0.00 130.00 110.00">
<g stroke-width="2.00" fill="none" stroke-linecap="butt">
<path stroke="#82b4c0" vector-effect="non-scaling-stroke" d="
  M 72.51 19.43
  A 8.01 8.01 0.0 0 0 64.50 11.42
  A 8.01 8.01 0.0 0 0 56.49 19.43
  A 8.01 8.01 0.0 0 0 64.50 27.44
  A 8.01 8.01 0.0 0 0 72.51 19.43"
/>
<path stroke="#82b4c0" vector-effect="non-scaling-stroke" d="
  M 88.13 19.47
  A 6.20 6.20 0.0 0 0 81.93 13.27
  A 6.20 6.20 0.0 0 0 75.73 19.47
  A 6.20 6.20 0.0 0 0 81.93 25.67
  A 6.20 6.20 0.0 0 0 88.13 19.47"
/>
<path stroke="#82b4c0" vector-effect="non-scaling-stroke" d="
  M 54.74 24.90
  A 9.81 9.81 0.0 0 0 44.93 15.09
  A 9.81 9.81 0.0 0 0 35.12 24.90
  A 9.81 9.81 0.0 0 0 44.93 34.71
  A 9.81 9.81 0.0 0 0 54.74 24.90"
/>
<path stroke="#82b4c0" vector-effect="non-scaling-stroke" d="
  M 101.24 25.65
  A 5.51 5.51 0.0 0 0 95.73 20.14
  A 5.51 5.51 0.0 0 0 90.22 25.65
  A 5.51 5.51 0.0 0 0 95.73 31.16
  A 5.51 5.51 0.0 0 0 101.24 25.65"
/>
<path stroke="#82b4c0" vector-effect="non-scaling-stroke" d="
  M 108.71 34.72
  A 3.75 3.75 0.0 0 0 104.96 30.97
  A 3.75 3.75 0.0 0 0 101.21 34.72
  A 3.75 3.75 0.0 0 0 104.96 38.47
  A 3.75 3.75 0.0 0 0 108.71 34.72"
/>
<path stroke="#82b4c0" vector-effect="non-scaling-stroke" d="
  M 39.14 41.92
  A 10.18 10.18 0.0 0 0 28.96 31.74
  A 10.18 10.18 0.0 0 0 18.78 41.92
  A 10.18 10.18 0.0 0 0 28.96 52.10
  A 10.18 10.18 0.0 0 0 39.14 41.92"
/>
<path stroke="#82b4c0" vector-effect="non-scaling-stroke" d="
  M 112.27 41.46
  A 2.24 2.24 0.0 0 0 110.03 39.22
  A 2.24 2.24 0.0 0 0 107.79 41.46
  A 2.24 2.24 0.0 0 0 110.03 43.70
  A 2.24 2.24 0.0 0 0 112.27 41.46"
/>
<path stroke="#82b4c0" vector-effect="non-scaling-stroke" d="
  M 114.79 48.18
  A 1.57 1.57 0.0 0 0 113.22 46.61
  A 1.57 1.57 0.0 0 0 111.65 48.18
  A 1.57 1.57 0.0 0 0 113.22 49.75
  A 1.57 1.57 0.0 0 0 114.79 48.18"
/>
<path stroke="#90908f" vector-effect="non-scaling-stroke" d="
  M 69.75 82.22
  Q 69.76 83.12 69.17 82.44
  Q 57.34 68.73 46.25 56.00
  Q 45.22 54.83 43.75 55.28
  Q 43.24 55.44 43.24 55.97
  L 43.21 92.22
  Q 43.21 92.48 43.47 92.48
  L 47.27 92.47
  Q 47.76 92.47 47.76 91.98
  L 47.73 65.46
  Q 47.73 64.58 48.31 65.24
  L 70.98 91.27
  Q 74.31 95.09 74.32 90.02
  L 74.35 55.53
  Q 74.35 55.22 74.03 55.22
  L 69.99 55.26
  Q 69.74 55.26 69.74 55.51
  L 69.75 82.22"
/>
<path stroke="#90908f" vector-effect="non-scaling-stroke" d="
  M 90.56 70.50
  A 0.35 0.35 0.0 0 1 90.21 70.15
  L 90.19 59.73
  A 0.35 0.35 0.0 0 1 90.54 59.38
  L 114.44 59.36
  A 0.35 0.35 0.0 0 0 114.79 59.01
  L 114.76 55.60
  A 0.35 0.35 0.0 0 0 114.41 55.25
  L 85.93 55.25
  A 0.35 0.35 0.0 0 0 85.58 55.60
  L 85.58 92.12
  A 0.35 0.35 0.0 0 0 85.93 92.47
  L 89.87 92.48
  A 0.35 0.35 0.0 0 0 90.22 92.13
  L 90.22 74.99
  A 0.35 0.35 0.0 0 1 90.57 74.64
  L 104.71 74.63
  A 0.35 0.35 0.0 0 0 105.06 74.29
  L 105.14 70.87
  A 0.35 0.35 0.0 0 0 104.79 70.51
  L 90.56 70.50"
/>
<path stroke="#82b4c0" vector-effect="non-scaling-stroke" d="
  M 33.00 64.79
  A 9.10 9.10 0.0 0 0 23.90 55.69
  A 9.10 9.10 0.0 0 0 14.80 64.79
  A 9.10 9.10 0.0 0 0 23.90 73.89
  A 9.10 9.10 0.0 0 0 33.00 64.79"
/>
<path stroke="#82b4c0" vector-effect="non-scaling-stroke" d="
  M 39.15 84.36
  A 8.36 8.36 0.0 0 0 30.79 76.00
  A 8.36 8.36 0.0 0 0 22.43 84.36
  A 8.36 8.36 0.0 0 0 30.79 92.72
  A 8.36 8.36 0.0 0 0 39.15 84.36"
/>
</g>
<path fill="#ffffff" d="
  M 0.00 0.00
  L 130.00 0.00
  L 130.00 110.00
  L 0.00 110.00
  L 0.00 0.00
  Z
  M 72.51 19.43
  A 8.01 8.01 0.0 0 0 64.50 11.42
  A 8.01 8.01 0.0 0 0 56.49 19.43
  A 8.01 8.01 0.0 0 0 64.50 27.44
  A 8.01 8.01 0.0 0 0 72.51 19.43
  Z
  M 88.13 19.47
  A 6.20 6.20 0.0 0 0 81.93 13.27
  A 6.20 6.20 0.0 0 0 75.73 19.47
  A 6.20 6.20 0.0 0 0 81.93 25.67
  A 6.20 6.20 0.0 0 0 88.13 19.47
  Z
  M 54.74 24.90
  A 9.81 9.81 0.0 0 0 44.93 15.09
  A 9.81 9.81 0.0 0 0 35.12 24.90
  A 9.81 9.81 0.0 0 0 44.93 34.71
  A 9.81 9.81 0.0 0 0 54.74 24.90
  Z
  M 101.24 25.65
  A 5.51 5.51 0.0 0 0 95.73 20.14
  A 5.51 5.51 0.0 0 0 90.22 25.65
  A 5.51 5.51 0.0 0 0 95.73 31.16
  A 5.51 5.51 0.0 0 0 101.24 25.65
  Z
  M 108.71 34.72
  A 3.75 3.75 0.0 0 0 104.96 30.97
  A 3.75 3.75 0.0 0 0 101.21 34.72
  A 3.75 3.75 0.0 0 0 104.96 38.47
  A 3.75 3.75 0.0 0 0 108.71 34.72
  Z
  M 39.14 41.92
  A 10.18 10.18 0.0 0 0 28.96 31.74
  A 10.18 10.18 0.0 0 0 18.78 41.92
  A 10.18 10.18 0.0 0 0 28.96 52.10
  A 10.18 10.18 0.0 0 0 39.14 41.92
  Z
  M 112.27 41.46
  A 2.24 2.24 0.0 0 0 110.03 39.22
  A 2.24 2.24 0.0 0 0 107.79 41.46
  A 2.24 2.24 0.0 0 0 110.03 43.70
  A 2.24 2.24 0.0 0 0 112.27 41.46
  Z
  M 114.79 48.18
  A 1.57 1.57 0.0 0 0 113.22 46.61
  A 1.57 1.57 0.0 0 0 111.65 48.18
  A 1.57 1.57 0.0 0 0 113.22 49.75
  A 1.57 1.57 0.0 0 0 114.79 48.18
  Z
  M 69.75 82.22
  Q 69.76 83.12 69.17 82.44
  Q 57.34 68.73 46.25 56.00
  Q 45.22 54.83 43.75 55.28
  Q 43.24 55.44 43.24 55.97
  L 43.21 92.22
  Q 43.21 92.48 43.47 92.48
  L 47.27 92.47
  Q 47.76 92.47 47.76 91.98
  L 47.73 65.46
  Q 47.73 64.58 48.31 65.24
  L 70.98 91.27
  Q 74.31 95.09 74.32 90.02
  L 74.35 55.53
  Q 74.35 55.22 74.03 55.22
  L 69.99 55.26
  Q 69.74 55.26 69.74 55.51
  L 69.75 82.22
  Z
  M 90.56 70.50
  A 0.35 0.35 0.0 0 1 90.21 70.15
  L 90.19 59.73
  A 0.35 0.35 0.0 0 1 90.54 59.38
  L 114.44 59.36
  A 0.35 0.35 0.0 0 0 114.79 59.01
  L 114.76 55.60
  A 0.35 0.35 0.0 0 0 114.41 55.25
  L 85.93 55.25
  A 0.35 0.35 0.0 0 0 85.58 55.60
  L 85.58 92.12
  A 0.35 0.35 0.0 0 0 85.93 92.47
  L 89.87 92.48
  A 0.35 0.35 0.0 0 0 90.22 92.13
  L 90.22 74.99
  A 0.35 0.35 0.0 0 1 90.57 74.64
  L 104.71 74.63
  A 0.35 0.35 0.0 0 0 105.06 74.29
  L 105.14 70.87
  A 0.35 0.35 0.0 0 0 104.79 70.51
  L 90.56 70.50
  Z
  M 33.00 64.79
  A 9.10 9.10 0.0 0 0 23.90 55.69
  A 9.10 9.10 0.0 0 0 14.80 64.79
  A 9.10 9.10 0.0 0 0 23.90 73.89
  A 9.10 9.10 0.0 0 0 33.00 64.79
  Z
  M 39.15 84.36
  A 8.36 8.36 0.0 0 0 30.79 76.00
  A 8.36 8.36 0.0 0 0 22.43 84.36
  A 8.36 8.36 0.0 0 0 30.79 92.72
  A 8.36 8.36 0.0 0 0 39.15 84.36
  Z"
/>
<circle fill="#046980" cx="64.50" cy="19.43" r="8.01"/>
<circle fill="#046980" cx="81.93" cy="19.47" r="6.20"/>
<circle fill="#046980" cx="44.93" cy="24.90" r="9.81"/>
<circle fill="#046980" cx="95.73" cy="25.65" r="5.51"/>
<circle fill="#046980" cx="104.96" cy="34.72" r="3.75"/>
<circle fill="#046980" cx="28.96" cy="41.92" r="10.18"/>
<circle fill="#046980" cx="110.03" cy="41.46" r="2.24"/>
<circle fill="#046980" cx="113.22" cy="48.18" r="1.57"/>
<path fill="#20201e" d="
  M 69.75 82.22
  L 69.74 55.51
  Q 69.74 55.26 69.99 55.26
  L 74.03 55.22
  Q 74.35 55.22 74.35 55.53
  L 74.32 90.02
  Q 74.31 95.09 70.98 91.27
  L 48.31 65.24
  Q 47.73 64.58 47.73 65.46
  L 47.76 91.98
  Q 47.76 92.47 47.27 92.47
  L 43.47 92.48
  Q 43.21 92.48 43.21 92.22
  L 43.24 55.97
  Q 43.24 55.44 43.75 55.28
  Q 45.22 54.83 46.25 56.00
  Q 57.34 68.73 69.17 82.44
  Q 69.76 83.12 69.75 82.22
  Z"
/>
<path fill="#20201e" d="
  M 90.56 70.50
  L 104.79 70.51
  A 0.35 0.35 0.0 0 1 105.14 70.87
  L 105.06 74.29
  A 0.35 0.35 0.0 0 1 104.71 74.63
  L 90.57 74.64
  A 0.35 0.35 0.0 0 0 90.22 74.99
  L 90.22 92.13
  A 0.35 0.35 0.0 0 1 89.87 92.48
  L 85.93 92.47
  A 0.35 0.35 0.0 0 1 85.58 92.12
  L 85.58 55.60
  A 0.35 0.35 0.0 0 1 85.93 55.25
  L 114.41 55.25
  A 0.35 0.35 0.0 0 1 114.76 55.60
  L 114.79 59.01
  A 0.35 0.35 0.0 0 1 114.44 59.36
  L 90.54 59.38
  A 0.35 0.35 0.0 0 0 90.19 59.73
  L 90.21 70.15
  A 0.35 0.35 0.0 0 0 90.56 70.50
  Z"
/>
<circle fill="#046980" cx="23.90" cy="64.79" r="9.10"/>
<circle fill="#046980" cx="30.79" cy="84.36" r="8.36"/>
</svg>
