<?xml version="1.0" encoding="UTF-8" standalone="no"?>
<!DOCTYPE svg PUBLIC "-//W3C//DTD SVG 1.1//EN" "http://www.w3.org/Graphics/SVG/1.1/DTD/svg11.dtd">
<svg xmlns="http://www.w3.org/2000/svg" version="1.1" viewBox="0.00 0.00 401.00 327.00">
<circle fill="#0070b5" cx="198.92" cy="32.72" r="32.24"/>
<circle fill="#0070b5" cx="268.80" cy="32.88" r="24.93"/>
<circle fill="#0070b5" cx="120.76" cy="54.60" r="39.40"/>
<circle fill="#0070b5" cx="323.97" cy="57.56" r="22.17"/>
<circle fill="#0070b5" cx="360.80" cy="93.84" r="15.06"/>
<circle fill="#0094d3" cx="56.88" cy="122.73" r="40.88"/>
<circle fill="#0094d3" cx="381.12" cy="120.81" r="9.07"/>
<circle fill="#0094d3" cx="393.83" cy="147.75" r="6.44"/>
<path fill="#ffffff" d="
  M 234.60 327.00
  L 233.24 327.00
  Q 229.21 325.36 225.92 321.58
  Q 180.01 268.86 134.14 216.11
  Q 133.61 215.51 133.05 215.20
  A 0.62 0.62 0.0 0 0 132.13 215.74
  L 132.19 323.48
  A 1.68 1.67 90.0 0 1 130.52 325.16
  L 115.26 325.15
  A 1.64 1.64 0.0 0 1 113.62 323.51
  L 113.82 178.70
  Q 113.83 176.71 115.71 176.06
  C 122.18 173.83 124.51 177.02 128.79 181.94
  Q 171.84 231.30 214.65 280.85
  Q 216.78 283.32 218.41 285.01
  Q 219.72 286.37 219.73 284.48
  L 219.83 176.55
  A 0.64 0.64 0.0 0 1 220.45 175.91
  L 236.30 175.59
  A 1.91 1.90 -0.4 0 1 238.24 177.49
  Q 238.25 245.64 238.29 314.50
  C 238.30 319.21 238.22 323.95 234.60 327.00
  Z"
/>
<path fill="#ffffff" d="
  M 302.18 192.76
  A 0.81 0.81 0.0 0 0 301.76 193.47
  L 301.67 235.95
  A 1.28 1.28 0.0 0 0 302.95 237.23
  L 360.01 237.23
  A 1.28 1.28 0.0 0 1 361.29 238.51
  L 361.23 251.61
  A 1.60 1.60 0.0 0 1 359.64 253.21
  L 302.98 253.52
  A 1.26 1.26 0.0 0 0 301.72 254.78
  L 301.75 323.25
  A 1.50 1.50 0.0 0 1 300.24 324.76
  L 285.06 324.74
  Q 283.38 324.74 283.38 323.06
  L 283.42 177.78
  A 1.55 1.55 0.0 0 1 284.97 176.23
  L 398.24 176.23
  Q 399.99 176.23 400.03 177.97
  Q 400.16 183.57 400.15 188.94
  C 400.15 189.77 399.77 190.42 399.74 191.14
  Q 399.69 192.26 398.56 192.26
  Q 351.12 192.27 303.50 192.43
  Q 302.79 192.43 302.18 192.76
  Z"
/>
<path fill="#00a7da" d="
  M 0.00 215.87
  L 0.00 212.25
  C 2.64 181.15 38.81 165.91 62.07 187.81
  C 73.03 198.13 76.39 215.93 69.87 229.56
  C 60.89 248.30 38.83 256.11 20.10 246.72
  C 7.65 240.49 1.79 229.71 0.00 215.87
  Z"
/>
<circle fill="#00a7da" cx="64.20" cy="292.40" r="33.72"/>
</svg>
